<svg id="Layer_1" data-name="Layer 1" xmlns="http://www.w3.org/2000/svg" viewBox="0 0 67.38 48.92"><defs><style>.cls-1{fill:#c33;}</style></defs><title>Merit Logo Mark-TM Red 2015 RGB</title><path class="cls-1" d="M66.39,9.11H12.18a4.11,4.11,0,0,0-4.11,4.11v40.7A4.11,4.11,0,0,0,12.18,58H66.39a4.11,4.11,0,0,0,4.11-4.11V13.22A4.11,4.11,0,0,0,66.39,9.11ZM59.21,48.58a3.77,3.77,0,0,1-2,.52,3.9,3.9,0,0,1-3.31-1.86l0,.08a4.09,4.09,0,0,1-3.37,1.78,4,4,0,0,1-3.34-1.8,4.07,4.07,0,0,1-5.42,1.27A4,4,0,0,1,40,46.39l-.4.7A4.08,4.08,0,0,1,34,48.57a4,4,0,0,1-1.78-2.16l-.37.63a4.08,4.08,0,0,1-5.56,1.49,4,4,0,0,1-1.8-2.24l-.44.75a4.06,4.06,0,1,1-7-4.08L30.37,20a4.11,4.11,0,0,1,5.56-1.59,4,4,0,0,1,1.84,2.29l.4-.7a4,4,0,0,1,7.37.62l.34-.58a4,4,0,0,1,7.38.67l.36-.62V20a4.25,4.25,0,0,1,2.07-1.78l.13-.05a4,4,0,0,1,.49-.15,2.2,2.2,0,0,1,.37-.07L57,18l.24,0a1.81,1.81,0,0,1,.23,0l.28,0a5.05,5.05,0,0,1,.56.12l.16,0a4.27,4.27,0,0,1,.65.29h0a3.92,3.92,0,0,1,2,3.4V45.2A3.91,3.91,0,0,1,59.21,48.58Z" transform="translate(-8.07 -9.11)"/><path class="cls-1" d="M20.64,47.49a2.53,2.53,0,0,1-2.19-3.81L31.78,20.82a2.53,2.53,0,0,1,4.38,2.55L22.83,46.23A2.53,2.53,0,0,1,20.64,47.49Z" transform="translate(-8.07 -9.11)"/><path class="cls-1" d="M36.07,47.49a2.53,2.53,0,0,1-2.19-3.81L47.21,20.82a2.53,2.53,0,0,1,4.38,2.55L38.26,46.23A2.53,2.53,0,0,1,36.07,47.49Z" transform="translate(-8.07 -9.11)"/><path class="cls-1" d="M53.11,35.75a.22.22,0,0,0-.13.06l-4.57,7.88h0a2.55,2.55,0,1,0,4.8,1.2v-9A.15.15,0,0,0,53.11,35.75Z" transform="translate(-8.07 -9.11)"/><path class="cls-1" d="M73.37,12v.27h-.52v1.36h-.33V12.28H72V12Zm1.76,1.63-.06-1c0-.12,0-.28,0-.45h0c0,.14-.09.33-.14.48l-.29.91h-.34L74,12.69c0-.13-.08-.32-.11-.46h0c0,.15,0,.3,0,.45l-.06,1h-.31L73.58,12h.49l.28.8c0,.13.07.25.11.41h0c0-.15.07-.28.11-.4l.28-.81h.47l.13,1.63Z" transform="translate(-8.07 -9.11)"/></svg>